<?xml version="1.0" encoding="utf-8"?>
<!-- Generator: Adobe Illustrator 20.0.0, SVG Export Plug-In . SVG Version: 6.00 Build 0)  -->
<svg version="1.0" xmlns="http://www.w3.org/2000/svg" xmlns:xlink="http://www.w3.org/1999/xlink" x="0px" y="0px"
	 viewBox="0 0 892 1042" style="enable-background:new 0 0 892 1042;" xml:space="preserve">
<style type="text/css">
	.st0{fill:#F4F4F4;stroke:#A8A8A8;stroke-miterlimit:10;}
	.st1{fill:#909091;}
	.st2{fill:#F4F4F4;stroke:#A8A8A8;stroke-width:2;stroke-miterlimit:10;}
	.st3{fill:#909091;stroke:#606060;stroke-width:4;stroke-miterlimit:10;}
	.st4{fill:#FFFFFF;stroke:#FFFFFF;stroke-width:0.5;stroke-miterlimit:10;}
	.st5{font-family:'ParisineStdClair-Regular';}
	.st6{font-size:63.2515px;}
	.st7{fill:#CAEAE1;stroke:#FFFFFF;stroke-width:6;stroke-miterlimit:10;}
	.st8{fill:#CAEAE1;}
	.st9{fill:#FFFFFF;stroke:#AFAFAF;stroke-width:5;stroke-miterlimit:10;}
	.st10{fill:#FFFFFF;stroke:#AFAFAF;stroke-width:3;stroke-miterlimit:10;}
	.st11{fill:#565656;stroke:#3A3A3A;stroke-width:0.5;stroke-miterlimit:10;}
	.st12{font-size:52px;}
	.st13{fill:#FFFFFF;stroke:#25CACE;stroke-width:7;stroke-miterlimit:10;}
</style>
<g id="Lager_1">
	<path class="st0" d="M872.3,1024.8H19.7c-3.1,0-5.7-2.5-5.7-5.7V21.9c0-3.1,2.5-5.7,5.7-5.7h852.7c3.1,0,5.7,2.5,5.7,5.7v997.3
		C878,1022.3,875.5,1024.8,872.3,1024.8z"/>
	<ellipse class="st1" cx="480.8" cy="740.1" rx="78.5" ry="73.9"/>
	<line class="st2" x1="878.9" y1="215" x2="206" y2="214"/>
	<g>
		<path class="st3" d="M836.3,981.8h-211
			c-10.9,0-19.8-7.1-19.8-15.7v-80.9c0-8.7,8.9-15.7,19.8-15.7h211c10.9,0,19.8,7.1,19.8,15.7v80.9
			C856.1,974.7,847.2,981.8,836.3,981.8z"/>
		<g>
			<text transform="matrix(0.9214 0 0 1 686.7549 945.9434)" class="st4 st5 st6">Bar</text>
		</g>
	</g>
	<line class="st2" x1="208" y1="213" x2="132" y2="277"/>
	<rect x="-276" y="210" class="st7" width="0" height="4"/>
	<rect x="650" y="-4" class="st8" width="2" height="10"/>
	<rect x="564" y="216" class="st8" width="6" height="2"/>
	<rect x="1048" y="862" class="st9" width="0" height="4"/>
	<g id="Lager_10">
	</g>
</g>
<g id="bord14">
	<g>
		<path class="st10" d="M468.6,982.7H303.9
			c-8.5,0-15.4-6.6-15.4-14.7v-75.8c0-8.1,7-14.7,15.4-14.7h164.7c8.5,0,15.4,6.6,15.4,14.7v75.8C484,976,477.1,982.7,468.6,982.7z"
			/>
		<g>
			<text transform="matrix(1 0 0 1 365.0974 946.5849)" class="st11 st5 st12">1</text>
		</g>
	</g>
</g>
<g id="bord13">
	<g>
		<path class="st10" d="M236.6,982.7H71.9
			c-8.5,0-15.4-6.6-15.4-14.7v-75.8c0-8.1,7-14.7,15.4-14.7h164.7c8.5,0,15.4,6.6,15.4,14.7V968C252,976.1,245,982.7,236.6,982.7z"
			/>
		<g>
			<text transform="matrix(1 0 0 1 131.5567 947.209)" class="st11 st5 st12">1</text>
		</g>
	</g>
</g>
<g id="bord12">
	<g>
		<path class="st10" d="M851.3,653.7l0.5,157.2
			c0,8.1-6.9,14.8-15.4,14.8l-79.4,0.2c-8.5,0-15.5-6.6-15.5-14.7L740.9,654c0-8.1,6.9-14.8,15.4-14.8l79.4-0.2
			C844.3,638.9,851.2,645.6,851.3,653.7z"/>
		<g>
			<text transform="matrix(1 0 0 1 783.08 751.6075)" class="st11 st5 st12">1</text>
		</g>
	</g>
</g>
<g id="bord11">
	<g>
		<path class="st10" d="M168.5,651.4l0.5,157.2
			c0,8.1-6.9,14.8-15.4,14.8l-79.4,0.2c-8.5,0-15.5-6.6-15.5-14.7l-0.5-157.2c0-8.1,6.9-14.8,15.4-14.8l79.4-0.2
			C161.5,636.7,168.5,643.3,168.5,651.4z"/>
		<g>
			<text transform="matrix(1 0 0 1 96.6086 740.0948)" class="st11 st5 st12">1</text>
		</g>
	</g>
</g>
<g id="bord10">
	<g>
		<path class="st10" d="M851.7,439.9l0.5,157.2
			c0,8.1-6.9,14.8-15.4,14.8l-79.4,0.2c-8.5,0-15.5-6.6-15.5-14.7l-0.5-157.2c0-8.1,6.9-14.8,15.4-14.8l79.4-0.2
			C844.7,425.2,851.7,431.8,851.7,439.9z"/>
		<g>
			<text transform="matrix(1 0 0 1 783.5948 534.1088)" class="st11 st5 st12">1</text>
		</g>
	</g>
</g>
<g id="bord9">
	<g>
		<path class="st10" d="M562.1,653.3H397.4
			c-8.5,0-15.4-6.6-15.4-14.7v-75.8c0-8.1,7-14.7,15.4-14.7h164.7c8.5,0,15.4,6.6,15.4,14.7v75.8
			C577.5,646.7,570.6,653.3,562.1,653.3z"/>
		<g>
			<text transform="matrix(1 0 0 1 466.5983 614.1142)" class="st11 st5 st12">1</text>
		</g>
	</g>
</g>
<g id="bord8">
	<g>
		<path class="st10" d="M168.1,438.4l0.5,157.2
			c0,8.1-6.9,14.8-15.4,14.8l-79.4,0.2c-8.5,0-15.5-6.6-15.5-14.7l-0.5-157.2c0-8.1,6.9-14.8,15.4-14.8l79.4-0.2
			C161.1,423.7,168.1,430.3,168.1,438.4z"/>
		<g>
			<text transform="matrix(1 0 0 1 97.6273 530.1067)" class="st11 st5 st12">1</text>
		</g>
	</g>
</g>
<g id="bord7">
	<g>
		<path class="st10" d="M834.2,369.6H669.6
			c-8.5,0-15.4-6.6-15.4-14.7V279c0-8.1,7-14.7,15.4-14.7h164.7c8.5,0,15.4,6.6,15.4,14.7v75.8C849.7,363,842.7,369.6,834.2,369.6z"
			/>
		<g>
			<text transform="matrix(1 0 0 1 737.6002 330.1191)" class="st11 st5 st12">1</text>
		</g>
	</g>
</g>
<g id="bord6">
	<g>
		<path class="st13" d="M586.7,283.3l0.5,157.2
			c0,8.1-6.9,14.8-15.4,14.8l-79.4,0.2c-8.5,0-15.5-6.6-15.5-14.7l-0.5-157.2c0-8.1,6.9-14.8,15.4-14.8l79.4-0.2
			C579.7,268.6,586.7,275.2,586.7,283.3z"/>
		<g>
			<text transform="matrix(0.9375 0 0 1 520.4365 369.1167)" class="st11 st5 st12">1</text>
		</g>
	</g>
</g>
<g id="bord5">
	<g>
		<path class="st10" d="M427,282.5l0.5,157.2
			c0,8.1-6.9,14.8-15.4,14.8l-79.4,0.2c-8.5,0-15.5-6.6-15.5-14.7l-0.5-157.2c0-8.1,6.9-14.8,15.4-14.8l79.4-0.2
			C420,267.7,427,274.4,427,282.5z"/>
		<g>
			<text transform="matrix(1 0 0 1 356.0967 369.1132)" class="st11 st5 st12">1</text>
		</g>
	</g>
</g>
<g id="bord4">
	<g>
		<path class="st10" d="M836.5,164.2H679.9
			c-8.1,0-14.7-6.3-14.7-14V78.1c0-7.7,6.6-14,14.7-14h156.5c8.1,0,14.7,6.3,14.7,14v72.1C851.1,157.9,844.5,164.2,836.5,164.2z"/>
		<g>
			<text transform="matrix(1 0 0 1 740.6154 130.115)" class="st11 st5 st12">1</text>
		</g>
	</g>
</g>
<g id="bord3">
	<g>
		<path class="st10" d="M628.5,164.6H472
			c-8.1,0-14.7-6.3-14.7-14V78.5c0-7.7,6.6-14,14.7-14h156.5c8.1,0,14.7,6.3,14.7,14v72.1C643.2,158.3,636.6,164.6,628.5,164.6z"/>
		<g>
			<text transform="matrix(1 0 0 1 533.6096 130.1284)" class="st11 st5 st12">3</text>
		</g>
	</g>
</g>
<g id="bord2">
	<g>
		<path id="XMLID_2_" class="st10" d="M419.8,164.7H263.3c-8.1,0-14.7-6.3-14.7-14V78.6c0-7.7,6.6-14,14.7-14h156.5
			c8.1,0,14.7,6.3,14.7,14v72.1C434.5,158.4,427.9,164.7,419.8,164.7z"/>
		<g>
			<text transform="matrix(1 0 0 1 320.1204 131.6284)" class="st11 st5 st12">2</text>
		</g>
	</g>
</g>
<g id="bord1">
	<g>
		<path class="st10" d="M215.4,164.9H58.9c-8.1,0-14.7-6.3-14.7-14V78.8c0-7.7,6.6-14,14.7-14h156.5c8.1,0,14.7,6.3,14.7,14v72.1
			C230.1,158.6,223.5,164.9,215.4,164.9z"/>
		<g>
			<text transform="matrix(1 0 0 1 115.6154 133.115)" class="st11 st5 st12">1</text>
		</g>
	</g>
</g>
</svg>
